<?xml version="1.0" encoding="utf-8"?>
<!-- Generator: Adobe Illustrator 25.0.0, SVG Export Plug-In . SVG Version: 6.00 Build 0)  -->
<svg version="1.1" id="Layer_1" xmlns="http://www.w3.org/2000/svg" xmlns:xlink="http://www.w3.org/1999/xlink" x="0px" y="0px"
	 viewBox="0 0 1000 1000" style="enable-background:new 0 0 1000 1000;" xml:space="preserve">
<style type="text/css">
	.st0{fill:#5956E9;}
</style>
<g id="O_-_Offerboxx">
	<path class="st0" d="M495.3,257.4c-76.2,0-137.5,61.2-137.5,136.9s61.8,136.9,137.5,136.9c76.2,0,137.5-61.2,137.5-136.9
		C632.8,319.1,571,257.4,495.3,257.4z"/>
	<path class="st0" d="M918.4,234.3c-37.1-75.2-91.3-132.6-163.2-173.4S597.3-0.4,496.9-0.4c-74.1,0-140.1,11.8-198.1,34.9
		s-107.4,56.4-147.7,99.9s-71.4,96.1-92.9,158.4S26,423.3,26,497.4c0,72.5,10.2,140.1,30.6,202.4s50.5,116,90.7,160.6
		s90.2,78.9,149.8,103.1S425,1000,500.7,1000c76.2,0,143.9-11.8,202.4-35.4c59.1-23.6,108.5-58,149.3-103.1
		c40.3-45.1,70.9-97.7,91.3-158.9c20.4-61.2,30.6-128.9,30.6-204C974.3,397.5,955.5,309.5,918.4,234.3z M739.1,531.8l-2.1,3.2
		c-6.4,10.7-13.4,20.9-20.9,30.6L500.7,874.4L288.6,569.9c-39.7-47.3-63.4-108.5-63.4-175c0-151.4,123-273.8,275.5-273.8
		c152,0,275.5,122.4,275.5,273.8C775.6,444.2,762.2,491,739.1,531.8L739.1,531.8z"/>
</g>
</svg>
